<svg id="Expanded" xmlns="http://www.w3.org/2000/svg" viewBox="0 0 96 96"><path d="M76.63,92.63H19.37a6.66,6.66,0,0,1-6.51-6.79V49.94H6.69a4.69,4.69,0,0,1-3.31-8L16,30.61v-17a1,1,0,0,1,1-1H30.71a1,1,0,0,1,1,1v2.83l13-11.72a4.68,4.68,0,0,1,6.59,0L92.58,41.9l0,0a4.69,4.69,0,0,1-3.31,8H83.14v35.9A6.66,6.66,0,0,1,76.63,92.63ZM18,14.59V31.06a1,1,0,0,1-.33.74L4.76,43.38a2.69,2.69,0,0,0,1.93,4.56h7.17a1,1,0,0,1,1,1v36.9a4.67,4.67,0,0,0,4.51,4.79H76.63a4.67,4.67,0,0,0,4.51-4.79V48.94a1,1,0,0,1,1-1h7.17a2.68,2.68,0,0,0,1.91-4.57L49.94,6.19a2.72,2.72,0,0,0-3.84,0L31.38,19.41a1,1,0,0,1-1.08.17,1,1,0,0,1-.59-.91V14.59Z"/><path d="M65.76,56.25a1,1,0,0,1-.71-.3A24.14,24.14,0,0,0,31,56a1,1,0,0,1-1.42,0,1,1,0,0,1,0-1.41,26.14,26.14,0,0,1,36.94,0,1,1,0,0,1-.71,1.71Z"/><path d="M58.91,63.1a1,1,0,0,1-.71-.3,14.45,14.45,0,0,0-20.4,0,1,1,0,0,1-1.41,0,1,1,0,0,1,0-1.41,16.44,16.44,0,0,1,23.22,0,1,1,0,0,1,0,1.41A1,1,0,0,1,58.91,63.1Z"/><path d="M52.05,70a1,1,0,0,1-.7-.29,4.74,4.74,0,0,0-6.7,0,1,1,0,0,1-1.41-1.41,6.73,6.73,0,0,1,9.52,0,1,1,0,0,1,0,1.41A1,1,0,0,1,52.05,70Z"/></svg>